<?xml version="1.0" standalone="no"?>
<!DOCTYPE svg PUBLIC "-//W3C//DTD SVG 20010904//EN"
 "http://www.w3.org/TR/2001/REC-SVG-20010904/DTD/svg10.dtd">
<svg version="1.0" xmlns="http://www.w3.org/2000/svg"
 width="128.000000pt" height="128.000000pt" viewBox="0 0 128.000000 128.000000"
 preserveAspectRatio="xMidYMid meet">
<metadata>
Created by potrace 1.13, written by Peter Selinger 2001-2015
</metadata>
<g transform="translate(0.000000,128.000000) scale(0.100000,-0.100000)"
fill="#000000" stroke="none">
<path d="M480 1263 c-21 -10 -62 -18 -100 -18 -77 -1 -140 -29 -167 -75 -9
-16 -22 -30 -27 -30 -26 0 -77 -49 -92 -87 -20 -51 -13 -94 21 -139 l24 -32 3
-411 3 -411 28 -27 27 -28 330 0 330 0 27 28 c26 26 28 34 31 127 l4 100 72 0
c62 0 78 4 118 29 67 43 88 93 88 212 0 110 -19 162 -72 202 -39 30 -125 52
-174 44 l-34 -6 0 78 c0 59 4 82 16 92 24 20 44 65 44 101 0 73 -68 148 -135
148 -18 0 -53 11 -76 25 -24 14 -54 25 -65 25 -12 0 -27 7 -35 16 -21 25 -86
54 -121 54 -18 -1 -49 -8 -68 -17z m136 -88 c26 -28 40 -35 69 -35 27 0 44 -8
64 -28 23 -22 34 -26 56 -21 74 20 135 -65 90 -125 -12 -16 -18 -17 -27 -8
-18 18 -659 17 -677 0 -10 -11 -15 -9 -27 6 -31 43 -5 101 51 112 25 4 36 13
44 34 19 56 103 85 160 56 32 -17 33 -17 67 13 48 43 87 41 130 -4z m217 -277
c16 -12 17 -46 15 -418 l-3 -405 -315 0 -315 0 -3 405 c-2 372 -1 406 15 418
12 9 90 12 303 12 213 0 291 -3 303 -12z m238 -284 c22 -23 24 -34 24 -116 0
-86 -1 -91 -29 -114 -24 -21 -37 -24 -85 -22 l-56 3 -3 138 -3 137 64 0 c55 0
67 -3 88 -26z"/>
<path d="M240 440 l0 -340 290 0 290 0 0 340 0 340 -290 0 -290 0 0 -340z"/>
</g>
</svg>
